<?xml version="1.0" encoding="utf-8"?>
<!-- Generator: Adobe Illustrator 24.2.1, SVG Export Plug-In . SVG Version: 6.00 Build 0)  -->
<svg version="1.1" id="Layer_1" xmlns="http://www.w3.org/2000/svg" xmlns:xlink="http://www.w3.org/1999/xlink" x="0px" y="0px"
	 viewBox="0 0 792 612" style="enable-background:new 0 0 792 612;" xml:space="preserve">
<style type="text/css">
	.st0{display:none;}
	.st1{display:inline;}
	.st2{display:inline;opacity:0.5;fill:#4A5264;enable-background:new    ;}
	.st3{fill:#FFFFFF;}
	.st4{fill:none;stroke:#F29494;stroke-width:16;stroke-miterlimit:10;}
	.st5{display:inline;fill:#FFFFFF;}
	.st6{display:inline;opacity:0.6;}
	.st7{fill:#4A5264;}
	.st8{opacity:0.5;fill:#4A5264;enable-background:new    ;}
	.st9{display:inline;fill:#FFFFFF;stroke:#FFFFFF;stroke-width:20;stroke-miterlimit:10;}
	.st10{display:inline;fill:#FFFFFF;stroke:#4A5264;stroke-miterlimit:10;}
	.st11{display:inline;fill:none;stroke:#4A5264;stroke-width:10;stroke-miterlimit:10;}
</style>
<g id="Layer_1_1_" class="st0">
	
		<image style="display:inline;overflow:visible;enable-background:new    ;" width="1346" height="1500" xlink:href="25972FC8.png"  transform="matrix(1 0 0 1 -277 -444)">
	</image>
</g>
<g id="Layer_14" class="st0">
	<rect class="st1" width="792" height="612"/>
</g>
<g id="QR_scanning_button" class="st0">
	<path class="st2" d="M547.8,511.5c9.2,0.1,18.3,1.1,27.6,1.1c0.3,0,0.7,0,1,0c2.2-2.5,4.3-4.9,6.4-7.4c1.2-1.5,2.5-3,3.7-4.5
		c0.1-0.1,0.2-0.2,0.3-0.3c0.5-0.7,1-1.4,1.5-2.1c3.5-4.8,6.6-9.9,9.3-15.2c0.2-0.9,0.4-1.8,0.6-2.8c1.5-7,2.4-12.8,3-18.5
		c0.8-7.1,1.2-14.2,1.6-21.3c0.3-6.3,3.8-11.8,9.1-14.3V154.5c-8.5,0.2-15.7-7.7-15.7-16c0-6.4-0.2-12.8-0.7-19.1c0-0.2,0-0.4,0-0.5
		c0,0,0-0.1,0-0.1c-0.3-1.4-0.5-2.7-0.8-4.1c-0.3-1.3-0.7-2.6-1.1-3.8c-0.2-0.5-1.3-4.5-0.6-1.7c0.7,2.6-0.5-0.8-0.9-1.5
		c-0.4-0.7-0.9-1.8-1.5-2.6c-0.5-0.4-1-0.8-1.3-1.1c-0.5-0.5-2.6-2.1-2.3-2c-1.7-1.1-3.4-2.2-5.2-3.1c-0.5-0.3-4-1.7-3.3-1.5
		c-1.4-0.5-2.9-1.1-4.3-1.5c-3.5-1.2-6.4-3.3-8.4-5.9H260.5c0.3,8.6-7.7,15.8-16,15.8c-4.7,0-9.3,0.3-14,0.8c-0.2,0-0.4,0-0.6,0.1
		c-0.1,0-0.1,0-0.1,0c-1.1,0.2-2.3,0.4-3.4,0.6c-2.1,0.4-4.2,0.8-6.3,1.4c-4,1-7.8,2.3-11.6,3.8c-0.2,0.1-0.4,0.2-0.6,0.3
		c-0.9,0.4-1.9,0.9-2.8,1.3c-1.8,0.9-3.6,1.9-5.4,3c-1.5,0.9-3,2-4.4,3l0,0c1.2-0.8,0.7-0.5,0,0c1.8,1.9,3.1,4.1,3.9,6.7
		c2.7,9.8,1.7,19.7-0.4,29.5c-0.9,4-1.9,7.9-2.8,11.9c-0.1,0.5-0.8,5.2-0.8,4.3c-0.1,1.8-0.2,3.5-0.1,5.3c0.2,6.4-3.7,11.6-9.1,14.2
		v237.8c3.9,3,6.6,7.8,6.3,12.6c-0.6,9.9-0.9,19.8-0.5,29.7c0.1,2.8,0.3,5.5,0.6,8.2c0.1,0.7,0.1,1.4,0.2,2.1
		c0.2,1.1,0.4,2.2,0.6,3.3c0.5,2.6,1.1,5.1,1.9,7.6c0.2,0.5,0.3,1,0.5,1.5c0,0,0,0,0,0c0.3,0.5,0.6,0.9,0.8,1.2
		c0.2,0.2,0.5,0.4,0.7,0.6c-0.2-0.3,1.8,1.4,2.6,1.8c1,0.5,2,1,3,1.5c-3.8-1.9,0.2,0,1.1,0.4c1.3,0.5,2.7,0.9,4,1.4
		c2.7,0.9,5.5,1.7,8.2,2.6c8.8,2.8,17.5,6.4,24.2,12.4h295.6C539.2,513.5,543.5,511.4,547.8,511.5z"/>
	<g class="st1">
		<g id="XMLID_1_">
			<path class="st3" d="M612.2,161.4c0,7.8,0.1,15.7,0,23.5c-0.1,7-4.4,11.3-10.7,11.2c-6.2-0.1-10.4-4.6-10.5-11.5
				c-0.1-13.3,0-26.7,0-40c-0.1-20-13.6-33.6-33.5-33.7c-13.5,0-26.9,0.1-40.4-0.1c-8.8-0.1-13.9-8.3-10-15.6c2-3.7,5.2-5.6,9.3-5.6
				c16,0,32-0.5,47.9,0.3c24.6,1.2,46.4,23.7,47.6,48.4c0.4,7.6,0.1,15.3,0.1,23C612.1,161.4,612.2,161.4,612.2,161.4z"/>
			<path class="st3" d="M612,420.5c0.4,15.8,0.6,31.7-0.1,47.5c-1.1,24.9-23.6,46.9-48.5,48c-7.6,0.4-15.3,0-22.9,0
				c0,0.1,0,0.1,0,0.2c-7.7,0-15.3,0.1-23,0c-7.1-0.1-11.4-4.1-11.5-10.4c-0.1-6.4,4.5-10.8,11.7-10.8c13.3-0.1,26.6,0,39.9,0
				c19.9-0.1,33.4-13.6,33.4-33.7c0-13.5,0-27,0-40.5c0-4.4,1.7-8.4,5.8-9.6c3.3-1,7.8-0.9,10.7,0.7
				C609.9,413.2,611.9,417.4,612,420.5z"/>
			<path class="st3" d="M548.3,420.9c0.1,6.8,0.2,13.6,0,20.5c-0.2,6.6-4,10.7-10.6,10.7c-28.2,0.1-56.5,0.1-84.7,0
				c-6.9,0-10.7-4.1-10.9-11c-0.1-6.8-0.1-13.7,0-20.5c0.1-6.6,4.4-10.9,10.5-10.9c6,0,10.4,4.3,10.6,10.8c0.1,3.3,0,6.6,0,10.2
				c7.4,0,14,0,21.2,0c0-3.3-0.1-6.4,0-9.5c0.3-7,4.4-11.4,10.6-11.5c6.2,0,10.5,4.3,10.8,11.2c0.1,3.1,0,6.3,0,9.7
				c7.1,0,13.9,0,21.2,0c0-3.1,0-6.3,0-9.4c0.2-6.9,4.3-11.4,10.4-11.5C543.9,409.6,548.2,414,548.3,420.9z"/>
			<path class="st3" d="M548.3,271.6c0.1,13.8,0.1,27.7,0,41.5c-0.1,6.7-4.2,11-10.3,11c-6.3,0.1-10.6-4.4-10.8-11.1
				c-0.1-3.1,0-6.3,0-10c-4,0-7.3,0.1-10.6,0c-6.4-0.3-10.6-4.8-10.5-10.9c0.1-5.9,4.3-10,10.6-10.2c3.3-0.1,6.6,0,10.5,0
				c0-3.6,0-6.7,0-9.8c0.2-6.8,4.4-11.5,10.4-11.7C543.6,260.1,548.3,264.8,548.3,271.6z"/>
			<path class="st3" d="M548.2,177.1c0.3,12.8,0.3,25.6,0,38.4c-0.4,12.7-10.7,23-23.5,23.3c-12.6,0.3-25.2,0.3-37.9,0
				c-12.9-0.3-23.3-10.9-23.5-23.9c-0.3-12.5-0.3-25,0-37.4c0.3-13,10.6-23.2,23.6-23.7c6.3-0.3,12.6-0.1,18.9,0
				c6.3,0,12.6-0.2,18.9,0C537.7,154.3,547.9,164.3,548.2,177.1z M527.2,180.7c0.1-3.9-1.3-5.9-5.5-5.8c-10.6,0.1-21.3,0.1-31.9,0
				c-3.9,0-5.4,1.8-5.3,5.5c0,10.6,0,21.3,0,32c0,3.8,1.8,5.4,5.5,5.4c10.6-0.1,21.3,0,31.9,0c3.8,0,5.4-1.8,5.3-5.5
				c-0.1-5.3,0-10.7,0-16C527.2,191,527,185.8,527.2,180.7z"/>
			<path class="st3" d="M548.3,356.2c0,6.1-4.3,10.5-10.7,10.7c-3.3,0.1-6.6,0-10.4,0c0,3.5,0.1,6.6,0,9.7c-0.2,7.2-4,11.4-11,11.5
				c-14,0.1-27.9,0.1-41.9,0c-6.8-0.1-10.8-4.3-10.9-11c-0.1-6.8-0.1-13.7,0-20.5c0.1-6.5,4.6-10.8,10.6-10.8
				c6.1,0,10.3,4.2,10.5,10.9c0.1,3.3,0,6.6,0,10.1c7.4,0,14.1,0,21.5,0c0-3.6-0.1-7,0-10.5c0.3-6.3,4.1-10.3,10.4-10.4
				c7.1-0.2,14.3-0.2,21.4,0C544.2,346,548.3,350.2,548.3,356.2z"/>
			<path class="st3" d="M484.5,292.4c0,6.7,0.1,13.3,0,20c-0.1,7.4-4.2,11.8-10.7,11.7c-6.2-0.1-10.4-4.6-10.4-11.5
				c-0.1-13.5-0.1-27,0-40.5c0-7.1,4.5-11.9,10.8-11.8c6,0.1,10.2,4.8,10.4,11.7c0,0.3,0,0.7,0,1
				C484.5,279.4,484.5,285.9,484.5,292.4z"/>
			<path class="st3" d="M442,335.8c0.2,13.6,0.2,27.3,0,40.9c-0.1,7.4-4.3,11.4-11.6,11.4c-20.6,0.1-41.2,0.1-61.8,0
				c-7.1,0-11.9-4.5-11.8-10.7c0.1-6.2,4.9-10.4,12.1-10.5c15.3,0,30.6,0,45.9,0c1.8,0,3.6,0,5.5,0c0-7.3,0-14,0-21.3
				c-3.2,0-6.2,0.1-9.1,0c-7.2-0.3-11.8-4.6-11.8-10.9c0.1-6.1,4.6-10.4,11.5-10.6c6.5-0.2,13-0.2,19.4,0
				C437.7,324.4,441.9,328.5,442,335.8z"/>
			<path class="st3" d="M430.7,281.7c6.8,0.2,11.4,4.7,11.3,10.7c-0.1,6.1-4.8,10.5-11.6,10.5c-13.6,0.1-27.3,0.1-40.9,0
				c-6.8-0.1-11.3-4.5-11.2-10.7c0-6.1,4.3-10.2,10.9-10.5c3.1-0.1,6.3,0,9.8,0c0-7.2,0-14,0-21.5c-3.7,0-7.3,0-10.9,0
				c-6.3,0-12.6,0-19,0c-7.5-0.1-12.4-4.4-12.4-10.7c0.1-6.4,5-10.5,12.6-10.5c20.1,0,40.2,0,60.3,0c7.5,0,12.4,4.4,12.2,10.8
				c-0.1,6.2-4.8,10.3-12.1,10.4c-2.8,0-5.6,0-9,0c0,7.4,0,14,0,21.5C424.2,281.7,427.4,281.6,430.7,281.7z"/>
			<path class="st3" d="M441.9,163.7c0.3,14.5,0.3,28.9,0,43.4c-0.1,6.2-5,10.4-10.6,10.4c-5.8,0-10.4-4.5-10.6-11
				c-0.3-10.3-0.1-20.6-0.1-31.7c-16.6,0-32.5,0-48.4,0c-2,0-4,0.1-6-0.1c-5.6-0.7-9.7-5.6-9.5-11c0.3-5.4,4.3-9.9,9.9-10
				c21.8-0.2,43.5-0.2,65.3,0C437.6,153.9,441.7,157.8,441.9,163.7z"/>
			<path class="st3" d="M408.9,409.7c7.4,0,11.7,4.2,11.7,10.7c-0.1,6.3-4.7,10.5-12,10.5c-9.9,0.1-19.9,0-30.4,0
				c0,3.9,0.1,7.1,0,10.2c-0.4,6.7-4.5,10.9-10.5,11c-6.2,0.1-10.6-4.3-10.8-11.2c-0.2-6.6-0.2-13.3,0-20
				c0.2-7.3,4.4-11.2,11.8-11.3C382,409.6,395.4,409.6,408.9,409.7z"/>
			<path class="st3" d="M399.4,206.6c0.1,5.7-4,10.3-10.1,10.9c-3.6,0.3-7.3,0.1-11,0.1c0,0,0,0,0,0c-3.6,0-7.3,0.2-11-0.1
				c-6.2-0.5-10.5-5-10.5-10.6c0-5.7,4.2-10.3,10.4-10.6c7.3-0.3,14.6-0.3,21.9,0C395.2,196.6,399.2,201.1,399.4,206.6z"/>
			<path class="st3" d="M378.1,334.9c0,5.6-4.2,10.2-10.4,10.7c-3.6,0.3-7.3,0.1-11,0.1c0,0,0,0,0,0c-3.5,0-7,0.2-10.5,0
				c-6.5-0.4-10.8-4.9-10.7-10.8c0.1-5.7,4.3-10.2,10.6-10.4c7.1-0.3,14.3-0.3,21.4,0C373.8,324.6,378.1,329.2,378.1,334.9z"/>
			<path class="st3" d="M356.7,292c0.1,6.1-4.2,10.6-10.6,10.8c-6.8,0.2-13.6,0.1-20.4,0c-7-0.1-11-4.1-11.3-11.2
				c-0.1-3.1,0-6.3,0-10c-3.5,0-6.4,0.1-9.3,0c-7.2-0.2-12-4.4-12.1-10.6c-0.1-6.2,4.7-10.7,11.8-10.8c6.3-0.1,12.6-0.1,18.9,0
				c7.8,0.2,11.7,4.4,11.8,12.3c0,2.8,0,5.6,0,9.2c3.7,0,7.2-0.1,10.6,0C352.5,282,356.6,286.1,356.7,292z"/>
			<path class="st3" d="M335.5,391.1c0.2,12.3,0.2,24.6,0,36.9c-0.3,13.2-10.6,23.7-23.8,24c-12.5,0.3-24.9,0.3-37.4,0
				c-13.4-0.3-23.3-10.6-23.7-24c-0.2-6.1,0-12.3,0-18.5c0,0,0,0,0,0c0-6.3-0.2-12.6,0-19c0.5-13,10.8-23.3,23.7-23.6
				c12.5-0.3,24.9-0.3,37.4,0C324.8,367.3,335.2,377.9,335.5,391.1z M314.3,426.1c0-11,0-22,0-33c0-3.3-1.7-4.9-4.9-4.9
				c-11,0-21.9,0-32.9,0c-3.2,0-4.9,1.5-4.9,4.9c0.1,11,0,22,0,33c0,3.3,1.5,4.9,4.9,4.9c5.5,0,11,0,16.4,0c5.3,0,10.6-0.1,16,0
				C312.4,431,314.3,429.7,314.3,426.1z"/>
			<path class="st3" d="M335.4,177.5c0.3,12.5,0.3,25,0,37.4c-0.3,13.1-10.9,23.6-24,23.9c-12.3,0.3-24.6,0.2-36.9,0
				c-13.2-0.3-23.7-10.6-24-23.9c-0.3-12.5-0.3-25,0-37.4c0.3-13.4,10.5-23.4,23.9-23.8c6.1-0.2,12.3,0,18.4,0v0
				c6.3,0,12.6-0.2,18.9,0.1C324.8,154.3,335.1,164.5,335.4,177.5z M314.3,212.4c0-10.8,0-21.6,0-32.5c0-3.5-1.7-5.1-5.3-5
				c-5.1,0.1-10.3,0-15.5,0c-5.5,0-11,0.1-16.4,0c-3.7-0.1-5.6,1.3-5.5,5.2c0.1,10.8,0.1,21.6,0,32.5c0,3.7,1.8,5.1,5.2,5.1
				c10.8,0,21.6,0,32.4,0C312.8,217.7,314.3,215.9,314.3,212.4z"/>
			<path class="st3" d="M302,324.2c7.5,0.1,12.4,4.5,12.3,10.9c-0.1,6.2-4.9,10.5-12.1,10.5c-13.1,0.1-26.3,0.1-39.4,0
				c-7.6-0.1-12.2-4.3-12.1-10.9c0.1-6.3,4.6-10.3,12-10.6c0.2,0,0.3,0,0.5,0c6.5,0,13,0,19.5,0C289,324.2,295.5,324.1,302,324.2z"
				/>
			<path class="st3" d="M292.8,100.1c0.1,6.4-4.5,10.8-11.7,10.8c-13.5,0.1-26.9,0-40.4,0c-19.2,0.1-32.8,13.8-32.9,33.2
				c-0.1,13.7,0.1,27.3-0.1,41c0,5.7-3.6,9.9-8.5,10.8c-5,0.9-9.6-1.3-11.6-5.8c-0.7-1.6-1.1-3.5-1.1-5.3
				c-0.1-14.8-0.3-29.7,0.1-44.5c0.8-27.5,23.1-49.6,50.6-50.6c7-0.3,14,0,21,0c0,0,0-0.1,0-0.1c7.6,0,15.3-0.1,22.9,0
				C288.4,89.8,292.7,93.8,292.8,100.1z"/>
			<path class="st3" d="M292.6,503c1.1,4.8-0.9,9.8-5.2,11.9c-1.7,0.8-3.8,1.3-5.7,1.3c-14.8,0.1-29.6,0.3-44.4-0.1
				c-27.5-0.9-49.5-23.2-50.5-50.8c-0.3-7,0-14,0-21c0,0-0.1,0-0.1,0c0-7.7-0.1-15.3,0-23c0.1-7.1,4.1-11.4,10.4-11.5
				c6.4-0.1,10.7,4.5,10.8,11.7c0.1,13.3,0,26.7,0,40c0.1,19.9,13.6,33.4,33.6,33.5c13.5,0,26.9-0.1,40.4,0
				C287.4,495,291.5,498.3,292.6,503z"/>
			<path class="st3" d="M271.6,281.3c0,3.5,0.1,7,0,10.5c-0.2,6.4-4.6,11-10.5,11.1c-5.9,0.1-10.5-4.4-10.6-10.8c-0.2-7-0.2-14,0-21
				c0.2-6.4,4.8-10.9,10.6-10.9c5.9,0.1,10.3,4.7,10.5,11.1C271.7,274.7,271.6,278,271.6,281.3z"/>
		</g>
	</g>
	<g id="Layer_13" class="st1">
		<path class="st4" d="M293.1,195.7"/>
		<path class="st4" d="M293.1,103.3h-51c-22.1,0-40.2,18.1-40.2,40.2v52.1"/>
		<path class="st4" d="M608.4,195.7v-52.1c0-22.1-18.1-40.2-40.2-40.2h-52.2"/>
		<path class="st4" d="M515.9,195.7"/>
		<path class="st4" d="M293.1,416.5"/>
		<path class="st4" d="M202,416.5v53c0,22.1,18.1,40.2,40.2,40.2h51"/>
		<path class="st4" d="M515.9,416.5"/>
		<path class="st4" d="M515.9,509.7h52.3c22.1,0,40.2-18.1,40.2-40.2v-53"/>
	</g>
</g>
<g id="Photo_taking_button" class="st0">
	<path class="st2" d="M547.8,510.8c9.2,0.1,18.3,1.1,27.6,1.1c0.3,0,0.7,0,1,0c2.2-2.5,4.3-4.9,6.4-7.4c1.2-1.5,2.5-3,3.7-4.5
		c0.1-0.1,0.2-0.2,0.3-0.3c0.5-0.7,1-1.4,1.5-2.1c3.5-4.8,6.6-9.9,9.3-15.2c0.2-0.9,0.4-1.8,0.6-2.8c1.5-7,2.4-12.8,3-18.5
		c0.8-7.1,1.2-14.2,1.6-21.3c0.3-6.3,3.8-11.8,9.1-14.3V153.8c-8.5,0.2-15.7-7.7-15.7-16c0-6.4-0.2-12.8-0.7-19.1c0-0.2,0-0.4,0-0.5
		c0,0,0-0.1,0-0.1c-0.3-1.4-0.5-2.7-0.8-4.1c-0.3-1.3-0.7-2.6-1.1-3.8c-0.2-0.5-1.3-4.5-0.6-1.7c0.7,2.6-0.5-0.8-0.9-1.5
		c-0.4-0.7-0.9-1.8-1.5-2.6c-0.5-0.4-1-0.8-1.3-1.1c-0.5-0.5-2.6-2.1-2.3-2c-1.7-1.1-3.4-2.2-5.2-3.1c-0.5-0.3-4-1.7-3.3-1.5
		c-1.4-0.5-2.9-1.1-4.3-1.5c-3.5-1.2-6.4-3.3-8.4-5.9H260.5c0.3,8.6-7.7,15.8-16,15.8c-4.7,0-9.3,0.3-14,0.8c-0.2,0-0.4,0-0.6,0.1
		c-0.1,0-0.1,0-0.1,0c-1.1,0.2-2.3,0.4-3.4,0.6c-2.1,0.4-4.2,0.8-6.3,1.4c-4,1-7.8,2.3-11.6,3.8c-0.2,0.1-0.4,0.2-0.6,0.3
		c-0.9,0.4-1.9,0.9-2.8,1.3c-1.8,0.9-3.6,1.9-5.4,3c-1.5,0.9-3,2-4.4,3l0,0c1.2-0.8,0.7-0.5,0,0c1.8,1.9,3.1,4.1,3.9,6.7
		c2.7,9.8,1.7,19.7-0.4,29.5c-0.9,4-1.9,7.9-2.8,11.9c-0.1,0.5-0.8,5.2-0.8,4.3c-0.1,1.8-0.2,3.5-0.1,5.3c0.2,6.4-3.7,11.6-9.1,14.2
		V429c3.9,3,6.6,7.8,6.3,12.6c-0.6,9.9-0.9,19.8-0.5,29.7c0.1,2.8,0.3,5.5,0.6,8.2c0.1,0.7,0.1,1.4,0.2,2.1c0.2,1.1,0.4,2.2,0.6,3.3
		c0.5,2.6,1.1,5.1,1.9,7.6c0.2,0.5,0.3,1,0.5,1.5c0,0,0,0,0,0c0.3,0.5,0.6,0.9,0.8,1.2c0.2,0.2,0.5,0.4,0.7,0.6
		c-0.2-0.3,1.8,1.4,2.6,1.8c1,0.5,2,1,3,1.5c-3.8-1.9,0.2,0,1.1,0.4c1.3,0.5,2.7,0.9,4,1.4c2.7,0.9,5.5,1.7,8.2,2.6
		c8.8,2.8,17.5,6.4,24.2,12.4h295.6C539.1,512.8,543.4,510.8,547.8,510.8z"/>
	<g class="st1">
		<path class="st3" d="M265.2,371.7c0-41,0-82,0-123c0.5-2.5,0.9-5,1.5-7.4c3.8-13.5,17.1-27.2,36.6-27.1c9,0.1,18,0,26.9,0
			c1.1,0,1.6-0.3,2-1.4c2.4-6,4.7-12.1,7.2-18c4.8-11,12.9-18.3,24.5-21.5c2.6-0.7,5.4-1,8.1-1.4c17.6,0,35.2,0,52.8,0
			c0.4,0.1,0.8,0.2,1.2,0.2c14.8,1.5,25.3,9.1,31.4,22.6c2.6,5.9,4.9,12,7.3,18c0.4,1,0.9,1.4,2,1.4c9.1-0.1,18.1-0.1,27.2,0
			c17.8,0.1,32.8,12,36.8,29.3c0.4,1.9,0.7,3.8,1,5.7c0,40.7,0,81.4,0,122.2c-0.1,0.4-0.2,0.9-0.2,1.3
			c-1.4,15.2-12.9,28.7-27.7,32.4c-2.5,0.6-5.1,0.9-7.7,1.4c-65,0-130.1,0-195.1,0c-0.4-0.1-0.8-0.2-1.2-0.2
			c-15.4-1.2-28.8-12-33.1-26.8C266.1,377,265.7,374.3,265.2,371.7z M398.5,383.9c31.5,0,62.9,0,94.4,0c1.4,0,2.9-0.1,4.3-0.3
			c5.5-0.9,12.1-6.7,12-15.2c-0.1-38.6,0-77.2-0.1-115.8c0-1.4-0.1-2.7-0.4-4c-1.7-7.1-7.7-11.7-15.3-11.7c-14.1,0-28.1,0-42.2,0
			c-1,0-1.5-0.3-1.9-1.3c-4-10.1-8.1-20.3-12.1-30.4c-2.9-7.3-7.7-10.6-15.5-10.6c-15.6,0-31.2,0-46.8,0c-7.8,0-12.6,3.3-15.5,10.5
			c-4,10.1-8.1,20.3-12.1,30.4c-0.4,1-0.9,1.3-2,1.3c-14,0-27.9,0-41.9,0c-2.5,0-4.9,0.2-7.1,1.4c-5.7,3-8.8,7.7-8.8,14.3
			c0,32,0,64,0,96.1c0,6.6,0,13.2,0,19.9c0,2.8,0.6,5.4,2,7.8c3.2,5.3,8,7.7,14.1,7.7C335.4,383.9,367,383.9,398.5,383.9z"/>
		<path class="st3" d="M398.5,369.2c-35.4,0-64.3-28.9-64.2-64.2c0-35.3,29-64.1,64.2-64.1c35.4,0,64.2,28.9,64.2,64.2
			C462.7,340.5,433.9,369.3,398.5,369.2z M398.5,263.5c-23,0-41.6,18.7-41.6,41.6c0,22.9,18.7,41.6,41.7,41.6
			c23,0,41.6-18.7,41.6-41.6C440.2,282.1,421.5,263.5,398.5,263.5z"/>
	</g>
	<path class="st5" d="M611.8,161.1c0,7.8,0.1,15.7,0,23.5c-0.1,7-4.4,11.3-10.7,11.2c-6.2-0.1-10.4-4.6-10.5-11.5
		c-0.1-13.3,0-26.7,0-40c-0.1-20-13.6-33.6-33.5-33.7c-13.5,0-26.9,0.1-40.4-0.1c-8.8-0.1-13.9-8.3-10-15.6c2-3.7,5.1-5.6,9.3-5.6
		c16,0,32-0.5,47.9,0.3c24.6,1.2,46.4,23.7,47.6,48.4c0.4,7.6,0.1,15.3,0.1,23C611.7,161.1,611.7,161.1,611.8,161.1z"/>
	<path class="st5" d="M611.6,420.2c0.4,15.8,0.6,31.7-0.1,47.5c-1.1,24.9-23.6,46.9-48.5,48c-7.6,0.4-15.3,0-22.9,0
		c0,0.1,0,0.1,0,0.2c-7.7,0-15.3,0.1-23,0c-7.1-0.1-11.4-4.1-11.5-10.4c-0.1-6.4,4.5-10.8,11.7-10.8c13.3-0.1,26.6,0,39.9,0
		c19.9-0.1,33.4-13.6,33.4-33.7c0-13.5,0-27,0-40.5c0-4.4,1.7-8.4,5.8-9.6c3.3-1,7.8-0.9,10.7,0.7
		C609.5,412.9,611.5,417.2,611.6,420.2z"/>
	<path class="st5" d="M292.4,99.8c0.1,6.4-4.5,10.8-11.7,10.8c-13.5,0.1-26.9,0-40.4,0c-19.2,0.1-32.8,13.8-32.9,33.2
		c-0.1,13.7,0.1,27.3-0.1,41c0,5.7-3.6,9.9-8.5,10.8c-5,0.9-9.6-1.3-11.6-5.8c-0.7-1.6-1.1-3.5-1.1-5.3c-0.1-14.8-0.3-29.7,0.1-44.5
		c0.8-27.5,23.1-49.6,50.6-50.6c7-0.3,14,0,21,0c0,0,0-0.1,0-0.1c7.6,0,15.3-0.1,22.9,0C288,89.5,292.3,93.6,292.4,99.8z"/>
	<path class="st5" d="M292.1,502.7c1.1,4.8-0.9,9.8-5.2,11.9c-1.7,0.8-3.8,1.3-5.7,1.3c-14.8,0.1-29.6,0.3-44.4-0.1
		c-27.5-0.9-49.5-23.2-50.5-50.8c-0.3-7,0-14,0-21c0,0-0.1,0-0.1,0c0-7.7-0.1-15.3,0-23c0.1-7.1,4.1-11.4,10.4-11.5
		c6.4-0.1,10.7,4.5,10.8,11.7c0.1,13.3,0,26.7,0,40c0.1,19.9,13.6,33.4,33.6,33.5c13.5,0,26.9-0.1,40.4,0
		C286.9,494.7,291,498,292.1,502.7z"/>
</g>
<g id="back_button_scanning" class="st0">
	<circle class="st2" cx="409" cy="272.6" r="214.6"/>
	<g class="st1">
		<path class="st3" d="M370.5,271.1c2-1.5,3.8-2.5,5.2-3.9c33.3-33.2,66.5-66.4,99.7-99.7c13.7-13.7,13.9-33.5,0.9-46.4
			c-11.3-11.1-28.9-12.3-41.6-2.8c-2.3,1.7-4.3,3.7-6.3,5.7c-40.8,40.8-81.5,81.5-122.3,122.3c-16.6,16.6-16.6,34.5,0,51.1
			c41.4,41.4,82.7,82.7,124.1,124c13.8,13.8,34,13.9,46.8,0.5c12.3-12.9,11.9-32.1-1.1-45.4c-16.8-17-33.7-33.7-50.5-50.6
			s-33.7-33.7-50.5-50.5C373.7,274.4,372.7,273.3,370.5,271.1z"/>
	</g>
</g>
<g id="back_button_general" class="st0">
	<g class="st1">
		<path class="st3" d="M370.5,271.1c2-1.5,3.8-2.5,5.2-3.9c33.3-33.2,66.5-66.4,99.7-99.7c13.7-13.7,13.9-33.5,0.9-46.4
			c-11.3-11.1-28.9-12.3-41.6-2.8c-2.3,1.7-4.3,3.7-6.3,5.7c-40.8,40.8-81.5,81.5-122.3,122.3c-16.6,16.6-16.6,34.5,0,51.1
			c41.4,41.4,82.7,82.7,124.1,124c13.8,13.8,34,13.9,46.8,0.5c12.3-12.9,11.9-32.1-1.1-45.4c-16.8-17-33.7-33.7-50.5-50.6
			s-33.7-33.7-50.5-50.5C373.7,274.4,372.7,273.3,370.5,271.1z"/>
	</g>
</g>
<g id="no_geolocation_button" class="st0">
	<circle class="st2" cx="397.6" cy="295.6" r="225.3"/>
	<g class="st1">
		<path class="st3" d="M229.4,292.2c0.9-6.3,1.5-12.7,2.7-19c9.3-47.6,34.7-84.1,75.9-109.6c16.4-10.2,34.3-16.9,53.3-20.3
			c27.6-5,54.7-3.1,81.4,5.6c4.4,1.5,6.5,5.2,5.2,9.1c-1.2,3.9-4.9,5.7-9.2,4.6c-2.5-0.6-5-1.4-8.2-2.4
			c9.5,28.4,13.8,57.4,16.8,86.9c2.2-0.1,4.3-0.3,6.4-0.3c4.6-0.1,7.7,2.6,7.9,6.6c0.2,4-2.5,7.1-6.9,7.7c-1.9,0.3-3.8,0.4-5.9,0.6
			c0.3,14.5,1,28.9,0.9,43.2c-0.1,14.4-0.8,28.8-1.3,43.7c1.8-0.1,3.6-0.2,5.5-0.4c26.1-2.4,52.1-6.2,77.8-11.5
			c2-0.4,3.2-1.1,3.4-3.4c1-10.1,2.4-20.1,3.3-30.2c0.5-6,4.5-9.5,9.5-7.7c3.4,1.2,4.8,3.8,4.8,7.3c0,14.5-1.9,28.8-5.9,42.7
			c-9.2,32.2-26.6,59.2-52.3,80.7c-23.4,19.5-50.1,31.6-80.4,35.8c-32.7,4.6-64,0-93.7-14.5c-33-16.1-57.7-40.8-74.2-73.6
			c-9.3-18.5-14.8-38.1-16.3-58.8c-0.1-0.9-0.4-1.7-0.6-2.6C229.4,305.7,229.4,299,229.4,292.2z M348,263.6
			c-1.6,28.4-1.6,57.1,0.7,86c28.4,1.8,56.6,1.8,84.9,0c2.1-29.1,2.5-57.8,0.6-86C405.2,263.6,376.8,263.6,348,263.6z M271.9,340.9
			c-0.4-1.6-0.6-2.7-1-3.9c-3.2-10.6-4.7-21.5-5-32.6c0-1.3,0-2.7,0.4-4c0.8-3.3,3.8-5.4,6.9-5.3c3.3,0.1,6.3,2.6,6.8,6
			c0.4,2.3,0.5,4.7,0.6,7.1c0.4,11.5,2.8,22.5,7,33.2c0.4,1,1.8,2.2,2.9,2.4c5.6,1,11.4,1.8,17,2.4c8.7,1,17.4,1.8,25.6,2.6
			c0-29.1,0-57.9,0-86.1c-26.5-4.3-53-8.6-79.6-12.9c0,0.1-0.3,0.7-0.5,1.3c-6.1,16.3-9.4,33.2-9.1,50.5c0.2,10.9,2.1,21.7,3.4,32.5
			c0.1,0.9,1.3,2.2,2.1,2.4C256.8,338,264.1,339.3,271.9,340.9z M433,248.4c-0.1-1.6-0.2-3-0.3-4.3c-0.8-6.8-1.5-13.7-2.5-20.5
			c-3.2-22-7.5-43.7-15.5-64.5c-0.7-1.9-1.6-2.7-3.8-3c-13.2-1.7-26.3-1.7-39.4,0c-2.4,0.3-3.4,1.2-4.3,3.4
			c-8,21.1-12.4,43-15.5,65.2c-1.1,7.8-1.9,15.6-2.8,23.7C377.2,250.2,404.9,250.2,433,248.4z M349.6,364.9
			c2.2,13.6,4.4,27.3,6.8,40.9c0.1,0.9,1.4,1.9,2.4,2.2c4.4,1.3,8.9,2.6,13.4,3.2c6.5,0.9,13,1.3,19.5,1.9c3.1,0.3,5.2,1.9,6.2,4.9
			c1.5,5.1-2.1,9.5-8,9.2c-6.1-0.3-12.1-0.9-18.2-1.6c-3.6-0.4-7.2-1.3-11.5-2c2.6,7.6,5,14.6,7.3,21.6c0.6,1.9,1.7,2.6,3.6,2.8
			c13.4,1.7,26.7,1.7,40.1,0c2.1-0.3,3-1.2,3.7-3.1c6.4-16.6,10.4-33.8,13.3-51.2c1.6-9.6,2.8-19.3,4.1-28.9
			C404.7,364.9,377.5,364.9,349.6,364.9z M430.7,443.6c35.4-3.5,90.7-54.9,98.4-90.8c-27.3,3.8-54.7,7.5-82.5,11.4
			C443.8,390.7,439.3,417.5,430.7,443.6z M350.7,160.4c-40.4,12.3-70.7,37.2-91,75c25,5.8,49.8,9.7,74.7,11.9
			c2.2-14.8,3.9-29.4,6.6-43.7C343.6,189.1,347.4,174.9,350.7,160.4z M252.9,351.9c6.7,35.6,64.7,89.5,98.4,91.6
			c-1.9-6.8-4-13.6-5.6-20.4c-0.8-3.5-2.4-5.6-5.8-7c-10-4.1-18.9-9.9-27.3-16.6c-13.8-11.2-24.8-24.8-33-40.6
			c-0.5-1-1.5-2.2-2.4-2.4C269.1,354.8,261,353.4,252.9,351.9z M340.4,400.6c-1.8-12.7-3.5-24.9-5.2-37.1
			c-12.9-1.4-25.7-2.7-38.9-4.1C307.3,377.2,321.7,390.7,340.4,400.6z"/>
		<path class="st3" d="M516.9,128.6c31.6,0,57.9,25.5,58.7,57.1c0.2,9.6-2.8,18.7-6.3,27.5c-10,25.5-22.6,49.8-35.2,74
			c-7.3,14-26.7,14.3-34,0.3c-14-26.9-28.1-53.8-38.4-82.5C448.6,168.4,476.7,129,516.9,128.6z M472.6,189.1c0.8,3,1.8,9,3.9,14.6
			c9.6,26.4,23,51.1,35.6,76.1c2.4,4.7,7.1,4.7,9.6,0c3.1-5.7,6.1-11.5,8.9-17.5c8.9-19.2,17.9-38.3,26.3-57.7
			c2.4-5.5,4-11.7,4.2-17.6c0.5-23.9-19.5-43.5-43.8-44C493.5,142.6,473.4,162,472.6,189.1z"/>
		<path class="st3" d="M544.1,186.9c0.5,14.7-11.5,27.2-26.5,27.6c-15,0.4-27.5-11.5-27.8-26.6c-0.4-14.8,11.6-27.2,26.5-27.6
			C531.3,159.8,543.6,171.6,544.1,186.9z M529.7,187.3c0-7.1-5.8-12.8-12.9-12.8c-6.9,0.1-12.6,5.8-12.7,12.7
			c-0.1,7,5.8,12.9,12.9,13C524,200.2,529.7,194.4,529.7,187.3z"/>
	</g>
</g>
<g id="geolocation_icon" class="st0">
	<circle class="st2" cx="396.6" cy="294.6" r="225.3"/>
	<g class="st1">
		<path class="st3" d="M473.6,424.6c-14.8,10.7-30.1,18.2-42.8,19.4c5.4-16.5,9.2-33.4,12-50.2l-12.6-12.6c-0.6,4.4-1.2,8.7-2,13.1
			c-2.9,17.5-6.9,34.6-13.3,51.2c-0.7,1.9-1.6,2.8-3.7,3.1c-13.4,1.7-26.7,1.7-40.1,0c-1.9-0.3-3-0.9-3.6-2.8
			c-2.3-7-4.7-14-7.3-21.6c4.3,0.8,7.9,1.6,11.5,2c6,0.7,12.1,1.3,18.2,1.6c5.9,0.2,9.5-4.1,8-9.2c-0.9-3-3-4.6-6.2-4.9
			c-6.5-0.6-13-1-19.5-1.9c-4.5-0.7-9-2-13.4-3.2c-0.9-0.3-2.2-1.3-2.4-2.2c-2.3-13.6-4.5-27.3-6.8-40.9h64.6
			c-4.6-4.6-9.3-9.3-13.9-13.9c-17.2,0.2-34.4-0.2-51.7-1.3c-1.4-17.5-1.9-34.9-1.8-52.2l-13.7-13.7v64.9c-8.2-0.8-17-1.6-25.6-2.6
			c-5.7-0.6-11.4-1.4-17-2.4c-1.1-0.2-2.5-1.4-2.9-2.4c-4.1-10.7-6.5-21.7-7-33.2c-0.1-2.4-0.2-4.7-0.6-7.1c-0.5-3.4-3.4-5.9-6.8-6
			c-3.2-0.1-6.1,2.1-6.9,5.3c-0.3,1.3-0.4,2.7-0.4,4c0.3,11.1,1.8,22,5,32.6c0.3,1.1,0.6,2.3,1,3.9c-7.8-1.5-15.1-2.9-22.5-4.5
			c-0.9-0.2-2-1.5-2.1-2.4c-1.3-10.8-3.2-21.6-3.4-32.5c-0.3-17.3,3-34.3,9.1-50.5c0.2-0.6,0.5-1.2,0.5-1.3
			c18.2,2.9,36.3,5.9,54.3,8.8l-16.8-16.8c-10.4-1.8-20.9-3.9-31.3-6.3c2.9-5.5,6.1-10.6,9.5-15.6l-10.5-10.5
			c-13,18.5-21.9,39.8-26.6,64c-1.2,6.3-1.8,12.7-2.7,19V313c0.2,0.9,0.5,1.7,0.6,2.6c1.6,20.7,7,40.3,16.3,58.8
			c16.5,32.8,41.3,57.5,74.2,73.6c29.6,14.5,61,19.1,93.7,14.5c25.7-3.6,48.9-12.9,69.6-27.6L473.6,424.6z M335.3,363.9
			c1.7,12.3,3.4,24.5,5.2,37.1c-18.7-9.9-33.1-23.4-44.1-41.3C309.6,361.2,322.4,362.6,335.3,363.9z M252.9,352.4
			c8.2,1.5,16.2,2.9,24.3,4.5c1,0.2,1.9,1.4,2.4,2.4c8.2,15.8,19.2,29.4,33,40.6c8.4,6.8,17.3,12.6,27.3,16.6c3.4,1.4,5,3.5,5.8,7
			c1.6,6.9,3.7,13.6,5.6,20.4C317.6,441.9,259.6,388,252.9,352.4z"/>
		<path class="st3" d="M486,359.2c14.5-2,28.9-4,43.2-6c-2.2,10.2-8.2,21.6-16.4,32.8l10.2,10.2c10.7-15,18.7-31.7,23.9-50.2
			c4-13.9,5.9-28.2,5.9-42.7c0-3.5-1.4-6.1-4.8-7.3c-5-1.8-9,1.7-9.5,7.7c-0.9,10.1-2.3,20.1-3.3,30.2c-0.2,2.2-1.4,3-3.4,3.4
			c-19.3,4-38.8,7.1-58.3,9.4L486,359.2z"/>
		<path class="st3" d="M307.9,181.1c12.7-8.7,27-15.5,42.9-20.3c-3.3,14.5-7.1,28.7-9.8,43.1c-0.5,2.9-1,5.8-1.5,8.7l12.4,12.4
			c3.1-22.2,7.5-44.1,15.5-65.1c0.8-2.1,1.8-3.1,4.3-3.4c13.2-1.6,26.3-1.6,39.4,0c2.1,0.3,3,1.1,3.8,3c8,20.8,12.3,42.6,15.5,64.5
			c1,6.8,1.6,13.6,2.5,20.5c0.1,1.3,0.2,2.6,0.3,4.3c-18.8,1.2-37.4,1.6-56.2,1.2l14,14h43.3c1,14.7,1.3,29.5,1.2,44.5l14,14
			c0.2-5.8,0.3-11.5,0.4-17.2c0.1-14.4-0.6-28.7-0.9-43.2c2.1-0.2,4-0.4,5.9-0.6c4.4-0.6,7.1-3.6,6.9-7.7c-0.2-4-3.4-6.6-7.9-6.6
			c-2.1,0-4.2,0.2-6.4,0.3c-3-29.6-7.3-58.5-16.8-86.9c3.2,1,5.7,1.8,8.2,2.4c4.4,1.1,8-0.7,9.2-4.6c1.3-4-0.8-7.7-5.2-9.1
			c-26.6-8.8-53.8-10.6-81.4-5.6c-19,3.5-36.9,10.1-53.3,20.3c-3.6,2.2-7,4.5-10.3,6.9C301.1,174.4,304.5,177.7,307.9,181.1z"/>
		<path class="st3" d="M517,129.1c31.6,0,57.9,25.5,58.7,57.1c0.2,9.6-2.8,18.7-6.3,27.5c-10,25.5-22.6,49.8-35.2,74
			c-7.3,14-26.7,14.3-34,0.3c-14-26.9-28.1-53.8-38.4-82.5C448.7,168.9,476.8,129.4,517,129.1z M472.7,189.6c0.8,3,1.8,9,3.9,14.6
			c9.6,26.4,23,51.1,35.6,76.1c2.4,4.7,7.1,4.7,9.6,0c3.1-5.7,6.1-11.5,8.9-17.5c8.9-19.2,17.9-38.3,26.3-57.7
			c2.4-5.5,4-11.7,4.2-17.6c0.5-23.9-19.5-43.5-43.8-44C493.6,143.1,473.5,162.5,472.7,189.6z"/>
		<path class="st3" d="M544.2,187.4c0.5,14.7-11.5,27.2-26.5,27.6c-15,0.4-27.5-11.5-27.8-26.6c-0.4-14.8,11.6-27.2,26.5-27.6
			C531.4,160.3,543.7,172.1,544.2,187.4z M529.8,187.8c0-7.1-5.8-12.8-12.9-12.8c-6.9,0.1-12.6,5.8-12.7,12.7
			c-0.1,7,5.8,12.9,12.9,13C524.1,200.7,529.8,194.9,529.8,187.8z"/>
	</g>
	<g class="st6">
		<path class="st7" d="M414.5,365.3h17.8c-0.7,5.2-1.4,10.4-2.1,15.6l12.6,12.6c1.6-9.7,2.9-19.4,3.9-29c12.9-1.8,25.7-3.5,38.4-5.3
			c-4.2-4.2-8.4-8.4-12.5-12.5c-6.2,0.7-12.4,1.4-18.6,2c-1.9,0.2-3.7,0.2-5.5,0.4c0.3-8.6,0.6-17.1,0.9-25.5
			c-4.7-4.7-9.4-9.4-14-14c-0.2,13.4-0.8,27-1.7,40.6c-11,0.7-22,1.1-33,1.3L414.5,365.3z"/>
		<path class="st7" d="M484,434.8c3.6-2.5,7.1-5.3,10.6-8.1c10.8-9,20.1-19,28-29.9c-3.4-3.4-6.8-6.8-10.2-10.2
			c-10.4,13.9-24.2,27.5-38.6,38L484,434.8z"/>
		<path class="st7" d="M263.2,214l6.1,6.1c10.6-15.5,23.3-28.4,38-38.6l-10.2-10.2c-15.6,11.2-28.5,24.2-38.8,39l0.6,0.6
			C260.5,211.7,261.9,212.7,263.2,214z"/>
		<path class="st7" d="M308.2,259c8.4,1.4,16.7,2.7,25.1,4.1v21l13.7,13.7c0.1-11.3,0.4-22.5,1.1-33.6h41.9l-14-14
			c-8.9-0.2-17.8-0.6-26.8-1.1c0.9-7.9,1.7-15.4,2.7-22.9l-12.5-12.4c-1.8,11.2-3.2,22.6-4.9,34.2c-14.4-1.3-28.7-3.1-43.1-5.6
			L308.2,259z"/>
	</g>
	<path class="st5" d="M536.4,420.7C467.6,351.9,398.8,283.1,330,214.3c-19.3-19.3-38.6-38.6-58-57.9c-6.5-6.5-18.4-7-24.8,0
		c-6.4,7-6.9,17.8,0,24.8c68.8,68.8,137.6,137.6,206.4,206.4l58,58c6.5,6.5,18.4,7,24.8,0C542.8,438.4,543.3,427.6,536.4,420.7z"/>
</g>
<g id="comments_icon">
	<circle class="st8" cx="395.3" cy="295.3" r="225.3"/>
	<g>
		<g id="XMLID_2_">
			<g>
				<path class="st3" d="M259.3,268.8c0.1-24,10.1-43.3,29.7-57.3c11.3-8,24-12.3,37.9-12.3c50-0.1,100.1-0.3,150.2,0
					c34.4,0.2,64.5,28.5,66.4,62.7c0.9,15,1,30.4-0.8,45.3c-3.5,28.5-28.9,52.3-57.4,56c-4.4,0.6-8.8,0.8-13.3,0.8
					c-47.4,0.1-94.8,0-142.2,0.1c-2.2,0-4.6,0.6-6.6,1.5c-20.1,9.2-40.2,18.5-60.3,27.8c-1,0.5-2.1,0.9-3.6,1.5c0-1.4,0-2.3,0-3.1
					 M487.2,285.3c0-10.4-8.4-18.8-18.9-18.8c-10.4,0-18.7,8.2-18.9,18.5c-0.2,10.3,8.3,18.9,18.8,18.9
					C478.6,304,487.1,295.7,487.2,285.3z M401.8,304c10.5,0,18.9-8.5,18.8-18.9c-0.1-10.3-8.5-18.5-18.8-18.5
					c-10.5,0-19,8.4-19,18.7C382.8,295.6,391.3,304,401.8,304z M335.1,304c10.5,0,19-8.5,18.8-18.9c-0.1-10.3-8.5-18.5-18.8-18.6
					c-10.5,0-19,8.3-19,18.7C316.2,295.7,324.6,304,335.1,304z"/>
			</g>
		</g>
	</g>
</g>
<g id="users_scanned_icon" class="st0">
	<circle class="st2" cx="394.3" cy="296.3" r="225.3"/>
	<circle class="st9" cx="394.3" cy="195.5" r="62.1"/>
	<path class="st9" d="M516.1,410.2c4.3,0,7.7-3.7,7.3-8c-6.5-65.6-61.8-116.8-129.1-116.8s-122.6,51.2-129.1,116.8
		c-0.4,4.3,3,8,7.3,8H516.1z"/>
</g>
<g id="scanning_area" class="st0">
	<path class="st5" d="M582.9,112.7c0,3.8,0,7.5,0,11.3c-0.1,3.3-2.1,5.4-5.1,5.4c-3,0-5-2.2-5-5.5c0-6.4,0-12.8,0-19.1
		c0-9.6-6.5-16.1-16-16.1c-6.5,0-12.9,0.1-19.3,0c-4.2-0.1-6.7-4-4.8-7.5c1-1.8,2.5-2.7,4.5-2.7c7.6,0,15.3-0.2,22.9,0.2
		c11.8,0.6,22.2,11.3,22.8,23.2C582.9,105.4,582.8,109,582.9,112.7C582.8,112.7,582.8,112.7,582.9,112.7z"/>
	<path class="st5" d="M582.8,456.9c0.2,7.6,0.3,15.2,0,22.7c-0.5,11.9-11.3,22.4-23.2,23c-3.7,0.2-7.3,0-11,0c0,0,0,0.1,0,0.1
		c-3.7,0-7.3,0-11,0c-3.4,0-5.5-2-5.5-5c0-3.1,2.2-5.1,5.6-5.2c6.4,0,12.7,0,19.1,0c9.5,0,16-6.5,16-16.1c0-6.5,0-12.9,0-19.4
		c0-2.1,0.8-4,2.8-4.6c1.6-0.5,3.7-0.4,5.1,0.3C581.8,453.4,582.7,455.5,582.8,456.9z"/>
	<path class="st5" d="M257.7,83.3c0,3.1-2.1,5.2-5.6,5.2c-6.4,0-12.9,0-19.4,0c-9.2,0-15.7,6.6-15.8,15.9c0,6.5,0,13.1,0,19.6
		c0,2.7-1.7,4.8-4.1,5.2c-2.4,0.4-4.6-0.6-5.5-2.8c-0.3-0.8-0.5-1.7-0.5-2.5c0-7.1-0.1-14.2,0.1-21.3c0.4-13.2,11.1-23.8,24.3-24.2
		c3.3-0.1,6.7,0,10,0c0,0,0,0,0-0.1c3.7,0,7.3,0,11,0C255.6,78.4,257.6,80.3,257.7,83.3z"/>
	<path class="st5" d="M257.5,496.4c0.5,2.3-0.4,4.7-2.5,5.7c-0.8,0.4-1.8,0.6-2.8,0.6c-7.1,0-14.2,0.2-21.3-0.1
		c-13.1-0.4-23.7-11.1-24.2-24.3c-0.1-3.4,0-6.7,0-10c0,0,0,0-0.1,0c0-3.7,0-7.3,0-11c0.1-3.4,2-5.5,5-5.5c3.1,0,5.1,2.1,5.2,5.6
		c0,6.4,0,12.8,0,19.1c0,9.5,6.5,16,16.1,16c6.4,0,12.9,0,19.3,0C255.1,492.6,257,494.1,257.5,496.4z"/>
</g>
<g id="photo_taking_area" class="st0">
	<path class="st10" d="M673.5,56.8c0,4.1,0.1,8.1,0,12.2c-0.1,3.6-2.3,5.9-5.5,5.8c-3.2,0-5.4-2.4-5.4-6c0-6.9,0-13.8,0-20.8
		c0-10.4-7-17.5-17.4-17.5c-7,0-14,0.1-21,0c-4.5-0.1-7.2-4.3-5.2-8.1c1-1.9,2.7-2.9,4.8-2.9c8.3,0,16.6-0.3,24.9,0.2
		c12.8,0.6,24.1,12.3,24.7,25.1C673.5,48.9,673.4,52.8,673.5,56.8C673.4,56.8,673.4,56.8,673.5,56.8z"/>
	<path class="st10" d="M673.3,538.9c0.2,8.2,0.3,16.5,0,24.7c-0.6,12.9-12.3,24.3-25.2,25c-4,0.2-7.9,0-11.9,0c0,0,0,0.1,0,0.1
		c-4,0-8,0-11.9,0c-3.7,0-5.9-2.1-6-5.4c0-3.3,2.3-5.6,6.1-5.6c6.9,0,13.8,0,20.7,0c10.3,0,17.3-7.1,17.4-17.5c0-7,0-14,0-21
		c0-2.3,0.9-4.4,3-5c1.7-0.5,4.1-0.5,5.5,0.4C672.2,535.2,673.3,537.3,673.3,538.9z"/>
	<path class="st10" d="M190.3,25c0,3.3-2.3,5.6-6.1,5.6c-7,0-14,0-21,0c-10,0-17.1,7.2-17.1,17.2c0,7.1,0,14.2,0,21.3
		c0,3-1.8,5.2-4.4,5.6c-2.6,0.5-5-0.7-6-3c-0.4-0.8-0.6-1.8-0.6-2.8c0-7.7-0.2-15.4,0.1-23.1c0.4-14.3,12-25.8,26.3-26.3
		c3.6-0.1,7.3,0,10.9,0c0,0,0,0,0-0.1c4,0,7.9,0,11.9,0C188,19.6,190.2,21.7,190.3,25z"/>
	<path class="st10" d="M190.1,581.8c0.6,2.5-0.5,5.1-2.7,6.2c-0.9,0.4-2,0.7-3,0.7c-7.7,0-15.4,0.2-23.1-0.1
		c-14.3-0.5-25.7-12-26.2-26.4c-0.1-3.6,0-7.3,0-10.9c0,0,0,0-0.1,0c0-4,0-8,0-12c0.1-3.7,2.1-5.9,5.4-6c3.3,0,5.6,2.3,5.6,6.1
		c0,6.9,0,13.8,0,20.8c0,10.4,7.1,17.4,17.5,17.4c7,0,14,0,21,0C187.4,577.7,189.6,579.3,190.1,581.8z"/>
	<path class="st11" d="M212.8,87.4"/>
	<path class="st11" d="M212.8,525.7"/>
	<path class="st11" d="M601.3,525.7"/>
	<path class="st11" d="M601.3,87.4"/>
</g>
<g id="photo_taking_cancel_button" class="st0">
	<circle class="st2" cx="396.2" cy="295.9" r="225.3"/>
	<g class="st1">
		<path class="st3" d="M360.9,297c-6-6.8-11.7-13.4-17.5-20c-18.2-20.8-36.5-41.6-54.7-62.5c-11.1-12.8-9.6-32.3,3.2-43.4
			c12.7-11,32-9.6,43,3c21.8,24.9,43.5,49.7,65.3,74.6c0.4,0.4,0.8,0.9,1.8,2c0.4-0.7,0.6-1.4,1-1.9c21.7-24.8,43.4-49.6,65.1-74.5
			c8.6-9.8,22.2-13.3,34.3-8.6c12.2,4.7,19.9,16.4,19.5,29.5c-0.2,7.8-3.1,14.4-8.2,20.3c-23.5,26.8-47,53.6-70.5,80.5
			c-0.2,0.3-0.4,0.5-0.7,0.9c0.4,0.5,0.8,1.1,1.2,1.6c23.5,26.8,46.9,53.7,70.5,80.5c11.3,12.9,10.1,32.5-2.9,43.9
			c-12.7,11.1-32.2,9.5-43.4-3.4c-21.6-24.8-43.3-49.5-64.9-74.3c-0.4-0.5-0.8-0.9-1.5-1.6c-1,1.1-2,2.2-2.9,3.3
			c-21.3,24.3-42.6,48.7-64,73c-8.4,9.6-22.2,12.9-34.2,8.1c-12-4.8-19.9-16.9-19.3-29.7c0.3-7.3,2.8-13.7,7.6-19.2
			c21.3-24.3,42.5-48.6,63.8-72.9C355.3,303.4,358,300.3,360.9,297z"/>
	</g>
</g>
<g id="pts_display" class="st0">
	<path class="st5" d="M612.6,348.6h-404c-10.8,0-19.6-8.8-19.6-19.6v-79.9c0-10.8,8.8-19.6,19.6-19.6h404c10.8,0,19.6,8.8,19.6,19.6
		V329C632.2,339.8,623.4,348.6,612.6,348.6z"/>
	<polygon class="st5" points="412.2,381.9 455.5,342.6 368.9,342.6 	"/>
</g>
</svg>
