<svg id="Layer_21" data-name="Layer 21" xmlns="http://www.w3.org/2000/svg" viewBox="0 0 192.3 319.95"><defs><style>.cls-1{fill:#fff;}</style></defs><g id="back_button_general" data-name="back button general"><path class="cls-1" d="M370.5,271.1a50.16,50.16,0,0,0,5.2-3.9q49.95-49.8,99.7-99.7c13.7-13.7,13.9-33.5.9-46.4a31.94,31.94,0,0,0-41.6-2.8,56.86,56.86,0,0,0-6.3,5.7L306.1,246.3c-16.6,16.6-16.6,34.5,0,51.1q62.1,62.1,124.1,124c13.8,13.8,34,13.9,46.8.5,12.3-12.9,11.9-32.1-1.1-45.4-16.8-17-33.7-33.7-50.5-50.6s-33.7-33.7-50.5-50.5C373.7,274.4,372.7,273.3,370.5,271.1Z" transform="translate(-293.65 -111.9)"/></g></svg>