<svg id="Layer_1" data-name="Layer 1" xmlns="http://www.w3.org/2000/svg" viewBox="0 0 450.6 450.6"><defs><style>.cls-1{fill:#4a5264;opacity:0.5;isolation:isolate;}.cls-2{fill:#fff;}</style></defs><g id="photo_accept" data-name="photo accept"><circle class="cls-1" cx="225.3" cy="225.3" r="225.3"/><path class="cls-2" d="M368,352.62a3.41,3.41,0,0,0,1.2-1.35q8.73-12.18,17.43-24.37Q434,260.65,481.41,194.38a32.15,32.15,0,0,1,56.37,6.42A33.53,33.53,0,0,1,534,232.66q-15.82,22.07-31.59,44.18Q452.21,347.07,402,417.32a31.85,31.85,0,0,1-14,11.54c-11.15,4.52-21.77,3.38-31.59-3.61-7-5-13.85-10.19-20.77-15.3q-35-25.81-70-51.64a33.25,33.25,0,0,1-2.27-52.16,32.14,32.14,0,0,1,40-1.25q10.53,7.73,21,15.5l41.89,30.92Z" transform="translate(-169.7 -80.2)"/></g></svg>