<svg id="Layer_1" data-name="Layer 1" xmlns="http://www.w3.org/2000/svg" viewBox="0 0 298.15 298.67"><defs><style>.cls-1{fill:#fff;}</style></defs><g id="profile_QR_icon" data-name="profile QR icon"><path class="cls-1" d="M523.55,423.27c.1,6.8.2,13.6,0,20.5-.2,6.6-4,10.7-10.6,10.7-28.2.1-56.5.1-84.7,0-6.9,0-10.7-4.1-10.9-11s-.1-13.7,0-20.5c.1-6.6,4.4-10.9,10.5-10.9s10.4,4.3,10.6,10.8c.1,3.3,0,6.6,0,10.2h21.2c0-3.3-.1-6.4,0-9.5.3-7,4.4-11.4,10.6-11.5s10.5,4.3,10.8,11.2c.1,3.1,0,6.3,0,9.7h21.2v-9.4c.2-6.9,4.3-11.4,10.4-11.5C519.15,412,523.45,416.27,523.55,423.27Z" transform="translate(-225.52 -155.92)"/><path class="cls-1" d="M523.55,273.87c.1,13.8.1,27.7,0,41.5-.1,6.7-4.2,11-10.3,11-6.3.1-10.6-4.4-10.8-11.1-.1-3.1,0-6.3,0-10-4,0-7.3.1-10.6,0-6.4-.3-10.6-4.8-10.5-10.9.1-5.9,4.3-10,10.6-10.2,3.3-.1,6.6,0,10.5,0v-9.8c.2-6.8,4.4-11.5,10.4-11.7S523.45,267.17,523.55,273.87Z" transform="translate(-225.52 -155.92)"/><path class="cls-1" d="M523.45,179.47q.45,19.2,0,38.4a24.1,24.1,0,0,1-23.5,23.3c-12.6.3-25.2.3-37.9,0a24.22,24.22,0,0,1-23.5-23.9c-.3-12.5-.3-25,0-37.4a24.27,24.27,0,0,1,23.6-23.7c6.3-.3,12.6-.1,18.9,0s12.6-.2,18.9,0C513,156.67,523.15,166.57,523.45,179.47Zm-21,3.6c.1-3.9-1.3-5.9-5.5-5.8-10.6.1-21.3.1-31.9,0-3.9,0-5.4,1.8-5.3,5.5v32c0,3.8,1.8,5.4,5.5,5.4,10.6-.1,21.3,0,31.9,0,3.8,0,5.4-1.8,5.3-5.5-.1-5.3,0-10.7,0-16S502.25,188.17,502.45,183.07Z" transform="translate(-225.52 -155.92)"/><path class="cls-1" d="M523.55,358.47c0,6.1-4.3,10.5-10.7,10.7-3.3.1-6.6,0-10.4,0,0,3.5.1,6.6,0,9.7-.2,7.2-4,11.4-11,11.5-14,.1-27.9.1-41.9,0-6.8-.1-10.8-4.3-10.9-11s-.1-13.7,0-20.5c.1-6.5,4.6-10.8,10.6-10.8s10.3,4.2,10.5,10.9c.1,3.3,0,6.6,0,10.1h21.5c0-3.6-.1-7,0-10.5.3-6.3,4.1-10.3,10.4-10.4,7.1-.2,14.3-.2,21.4,0C519.35,348.27,523.45,352.57,523.55,358.47Z" transform="translate(-225.52 -155.92)"/><path class="cls-1" d="M459.75,294.77c0,6.7.1,13.3,0,20-.1,7.4-4.2,11.8-10.7,11.7-6.2-.1-10.4-4.6-10.4-11.5q-.15-20.25,0-40.5c0-7.1,4.5-11.9,10.8-11.8,6,.1,10.2,4.8,10.4,11.7v1C459.75,281.77,459.75,288.27,459.75,294.77Z" transform="translate(-225.52 -155.92)"/><path class="cls-1" d="M417.25,338.17c.2,13.6.2,27.3,0,40.9-.1,7.4-4.3,11.4-11.6,11.4q-30.9.15-61.8,0c-7.1,0-11.9-4.5-11.8-10.7s4.9-10.4,12.1-10.5h51.4V348c-3.2,0-6.2.1-9.1,0-7.2-.3-11.8-4.6-11.8-10.9.1-6.1,4.6-10.4,11.5-10.6,6.5-.2,13-.2,19.4,0C413,326.77,417.15,330.77,417.25,338.17Z" transform="translate(-225.52 -155.92)"/><path class="cls-1" d="M406,284.07c6.8.2,11.4,4.7,11.3,10.7s-4.8,10.5-11.6,10.5c-13.6.1-27.3.1-40.9,0-6.8-.1-11.3-4.5-11.2-10.7s4.3-10.2,10.9-10.5c3.1-.1,6.3,0,9.8,0v-21.5h-29.9c-7.5-.1-12.4-4.4-12.4-10.7s5-10.5,12.6-10.5h60.3c7.5,0,12.4,4.4,12.2,10.8-.1,6.2-4.8,10.3-12.1,10.4h-9v21.5C399.45,284.07,402.65,284,406,284.07Z" transform="translate(-225.52 -155.92)"/><path class="cls-1" d="M417.15,166.07c.3,14.5.3,28.9,0,43.4a10.43,10.43,0,0,1-10.6,10.4c-5.8,0-10.4-4.5-10.6-11-.3-10.3-.1-20.6-.1-31.7h-48.4c-2,0-4,.1-6-.1a10.84,10.84,0,0,1-9.5-11c.3-5.4,4.3-9.9,9.9-10,21.8-.2,43.5-.2,65.3,0A9.9,9.9,0,0,1,417.15,166.07Z" transform="translate(-225.52 -155.92)"/><path class="cls-1" d="M384.15,412.07c7.4,0,11.7,4.2,11.7,10.7-.1,6.3-4.7,10.5-12,10.5-9.9.1-19.9,0-30.4,0,0,3.9.1,7.1,0,10.2-.4,6.7-4.5,10.9-10.5,11-6.2.1-10.6-4.3-10.8-11.2-.2-6.6-.2-13.3,0-20,.2-7.3,4.4-11.2,11.8-11.3C357.25,412,370.65,412,384.15,412.07Z" transform="translate(-225.52 -155.92)"/><path class="cls-1" d="M374.65,209c.1,5.7-4,10.3-10.1,10.9-3.6.3-7.3.1-11,.1h0c-3.6,0-7.3.2-11-.1-6.2-.5-10.5-5-10.5-10.6a10.49,10.49,0,0,1,10.4-10.6q10.95-.45,21.9,0A10.48,10.48,0,0,1,374.65,209Z" transform="translate(-225.52 -155.92)"/><path class="cls-1" d="M353.35,337.17c0,5.6-4.2,10.2-10.4,10.7-3.6.3-7.3.1-11,.1h0c-3.5,0-7,.2-10.5,0-6.5-.4-10.8-4.9-10.7-10.8.1-5.7,4.3-10.2,10.6-10.4,7.1-.3,14.3-.3,21.4,0C349.05,327,353.35,331.57,353.35,337.17Z" transform="translate(-225.52 -155.92)"/><path class="cls-1" d="M332,294.37c.1,6.1-4.2,10.6-10.6,10.8-6.8.2-13.6.1-20.4,0-7-.1-11-4.1-11.3-11.2-.1-3.1,0-6.3,0-10-3.5,0-6.4.1-9.3,0-7.2-.2-12-4.4-12.1-10.6s4.7-10.7,11.8-10.8q9.45-.15,18.9,0c7.8.2,11.7,4.4,11.8,12.3v9.2c3.7,0,7.2-.1,10.6,0C327.75,284.37,331.85,288.47,332,294.37Z" transform="translate(-225.52 -155.92)"/><path class="cls-1" d="M310.75,393.47q.3,18.45,0,36.9a24.29,24.29,0,0,1-23.8,24c-12.5.3-24.9.3-37.4,0-13.4-.3-23.3-10.6-23.7-24-.2-6.1,0-12.3,0-18.5h0c0-6.3-.2-12.6,0-19a24.34,24.34,0,0,1,23.7-23.6c12.5-.3,24.9-.3,37.4,0A24.61,24.61,0,0,1,310.75,393.47Zm-21.2,35v-33c0-3.3-1.7-4.9-4.9-4.9h-32.9c-3.2,0-4.9,1.5-4.9,4.9.1,11,0,22,0,33,0,3.3,1.5,4.9,4.9,4.9h16.4c5.3,0,10.6-.1,16,0C287.65,433.37,289.55,432,289.55,428.47Z" transform="translate(-225.52 -155.92)"/><path class="cls-1" d="M310.65,179.87c.3,12.5.3,25,0,37.4a24.52,24.52,0,0,1-24,23.9c-12.3.3-24.6.2-36.9,0a24.31,24.31,0,0,1-24-23.9c-.3-12.5-.3-25,0-37.4.3-13.4,10.5-23.4,23.9-23.8,6.1-.2,12.3,0,18.4,0h0c6.3,0,12.6-.2,18.9.1A24.29,24.29,0,0,1,310.65,179.87Zm-21.1,34.9v-32.5c0-3.5-1.7-5.1-5.3-5-5.1.1-10.3,0-15.5,0-5.5,0-11,.1-16.4,0-3.7-.1-5.6,1.3-5.5,5.2.1,10.8.1,21.6,0,32.5,0,3.7,1.8,5.1,5.2,5.1h32.4C288.05,220.07,289.55,218.27,289.55,214.77Z" transform="translate(-225.52 -155.92)"/><path class="cls-1" d="M277.15,326.57c7.5.1,12.4,4.5,12.3,10.9-.1,6.2-4.9,10.5-12.1,10.5-13.1.1-26.3.1-39.4,0-7.6-.1-12.2-4.3-12.1-10.9.1-6.3,4.6-10.3,12-10.6h20C264.25,326.57,270.75,326.47,277.15,326.57Z" transform="translate(-225.52 -155.92)"/><path class="cls-1" d="M246.85,283.67c0,3.5.1,7,0,10.5-.2,6.4-4.6,11-10.5,11.1s-10.5-4.4-10.6-10.8q-.3-10.5,0-21c.2-6.4,4.8-10.9,10.6-10.9s10.3,4.7,10.5,11.1C247,277,246.85,280.37,246.85,283.67Z" transform="translate(-225.52 -155.92)"/></g></svg>