<svg id="Layer_10" data-name="Layer 10" xmlns="http://www.w3.org/2000/svg" viewBox="0 0 425.82 426.79"><defs><style>.cls-1{fill:#fff;}</style></defs><g id="QR_scanning_button" data-name="QR scanning button"><path class="cls-1" d="M183.49,161c0-7.7-.3-15.4.1-23,1.2-24.7,23-47.2,47.6-48.4,15.9-.8,31.9-.3,47.9-.3a10,10,0,0,1,9.3,5.6c3.9,7.3-1.3,15.5-10,15.6-13.5.2-26.9.1-40.4.1-19.9.1-33.4,13.7-33.5,33.7,0,13.3.1,26.7,0,40-.1,6.9-4.3,11.4-10.5,11.5s-10.6-4.2-10.7-11.2c-.1-7.8,0-15.7,0-23.5A.31.31,0,0,0,183.49,161Z" transform="translate(-183.25 -89.05)"/><path class="cls-1" d="M608.9,161c0,7.8.1,15.7,0,23.5-.1,7-4.4,11.3-10.7,11.2s-10.4-4.6-10.5-11.5c-.1-13.3,0-26.7,0-40-.1-20-13.6-33.6-33.5-33.7-13.5,0-26.9.1-40.4-.1-8.7-.1-13.9-8.3-10-15.6a10,10,0,0,1,9.3-5.6c16,0,32-.5,47.9.3,24.6,1.2,46.4,23.7,47.6,48.4.4,7.6.1,15.3.1,23A.31.31,0,0,0,608.9,161Z" transform="translate(-183.25 -89.05)"/><path class="cls-1" d="M608.7,420c.4,15.8.6,31.7-.1,47.5-1.1,24.9-23.6,46.9-48.5,48-7.6.4-15.3,0-22.9,0v.2c-7.7,0-15.3.1-23,0-7.1-.1-11.4-4.1-11.5-10.4s4.5-10.8,11.7-10.8c13.3-.1,26.6,0,39.9,0,19.9-.1,33.4-13.6,33.4-33.7V420.3c0-4.4,1.7-8.4,5.8-9.6,3.3-1,7.8-.9,10.7.7C606.6,412.8,608.6,417,608.7,420Z" transform="translate(-183.25 -89.05)"/><path class="cls-1" d="M545,420.5c.1,6.8.2,13.6,0,20.5-.2,6.6-4,10.7-10.6,10.7-28.2.1-56.5.1-84.7,0-6.9,0-10.7-4.1-10.9-11s-.1-13.7,0-20.5c.1-6.6,4.4-10.9,10.5-10.9s10.4,4.3,10.6,10.8c.1,3.3,0,6.6,0,10.2h21.2c0-3.3-.1-6.4,0-9.5.3-7,4.4-11.4,10.6-11.5s10.5,4.3,10.8,11.2c.1,3.1,0,6.3,0,9.7h21.2v-9.4c.2-6.9,4.3-11.4,10.4-11.5C540.6,409.2,544.9,413.5,545,420.5Z" transform="translate(-183.25 -89.05)"/><path class="cls-1" d="M545,271.1c.1,13.8.1,27.7,0,41.5-.1,6.7-4.2,11-10.3,11-6.3.1-10.6-4.4-10.8-11.1-.1-3.1,0-6.3,0-10-4,0-7.3.1-10.6,0-6.4-.3-10.6-4.8-10.5-10.9.1-5.9,4.3-10,10.6-10.2,3.3-.1,6.6,0,10.5,0v-9.8c.2-6.8,4.4-11.5,10.4-11.7S544.9,264.4,545,271.1Z" transform="translate(-183.25 -89.05)"/><path class="cls-1" d="M544.9,176.7q.45,19.2,0,38.4a24.1,24.1,0,0,1-23.5,23.3c-12.6.3-25.2.3-37.9,0A24.22,24.22,0,0,1,460,214.5c-.3-12.5-.3-25,0-37.4a24.27,24.27,0,0,1,23.6-23.7c6.3-.3,12.6-.1,18.9,0s12.6-.2,18.9,0C534.4,153.9,544.6,163.8,544.9,176.7Zm-21,3.6c.1-3.9-1.3-5.9-5.5-5.8-10.6.1-21.3.1-31.9,0-3.9,0-5.4,1.8-5.3,5.5v32c0,3.8,1.8,5.4,5.5,5.4,10.6-.1,21.3,0,31.9,0,3.8,0,5.4-1.8,5.3-5.5-.1-5.3,0-10.7,0-16S523.7,185.4,523.9,180.3Z" transform="translate(-183.25 -89.05)"/><path class="cls-1" d="M545,355.7c0,6.1-4.3,10.5-10.7,10.7-3.3.1-6.6,0-10.4,0,0,3.5.1,6.6,0,9.7-.2,7.2-4,11.4-11,11.5-14,.1-27.9.1-41.9,0-6.8-.1-10.8-4.3-10.9-11s-.1-13.7,0-20.5c.1-6.5,4.6-10.8,10.6-10.8s10.3,4.2,10.5,10.9c.1,3.3,0,6.6,0,10.1h21.5c0-3.6-.1-7,0-10.5.3-6.3,4.1-10.3,10.4-10.4,7.1-.2,14.3-.2,21.4,0C540.8,345.5,544.9,349.8,545,355.7Z" transform="translate(-183.25 -89.05)"/><path class="cls-1" d="M481.2,292c0,6.7.1,13.3,0,20-.1,7.4-4.2,11.8-10.7,11.7-6.2-.1-10.4-4.6-10.4-11.5q-.15-20.25,0-40.5c0-7.1,4.5-11.9,10.8-11.8,6,.1,10.2,4.8,10.4,11.7v1C481.2,279,481.2,285.5,481.2,292Z" transform="translate(-183.25 -89.05)"/><path class="cls-1" d="M438.7,335.4c.2,13.6.2,27.3,0,40.9-.1,7.4-4.3,11.4-11.6,11.4q-30.9.15-61.8,0c-7.1,0-11.9-4.5-11.8-10.7s4.9-10.4,12.1-10.5H417V345.2c-3.2,0-6.2.1-9.1,0-7.2-.3-11.8-4.6-11.8-10.9.1-6.1,4.6-10.4,11.5-10.6,6.5-.2,13-.2,19.4,0C434.4,324,438.6,328,438.7,335.4Z" transform="translate(-183.25 -89.05)"/><path class="cls-1" d="M427.4,281.3c6.8.2,11.4,4.7,11.3,10.7s-4.8,10.5-11.6,10.5c-13.6.1-27.3.1-40.9,0-6.8-.1-11.3-4.5-11.2-10.7s4.3-10.2,10.9-10.5c3.1-.1,6.3,0,9.8,0V259.8H365.8c-7.5-.1-12.4-4.4-12.4-10.7s5-10.5,12.6-10.5h60.3c7.5,0,12.4,4.4,12.2,10.8-.1,6.2-4.8,10.3-12.1,10.4h-9v21.5C420.9,281.3,424.1,281.2,427.4,281.3Z" transform="translate(-183.25 -89.05)"/><path class="cls-1" d="M438.6,163.3c.3,14.5.3,28.9,0,43.4A10.43,10.43,0,0,1,428,217.1c-5.8,0-10.4-4.5-10.6-11-.3-10.3-.1-20.6-.1-31.7H368.9c-2,0-4,.1-6-.1a10.84,10.84,0,0,1-9.5-11c.3-5.4,4.3-9.9,9.9-10,21.8-.2,43.5-.2,65.3,0A9.9,9.9,0,0,1,438.6,163.3Z" transform="translate(-183.25 -89.05)"/><path class="cls-1" d="M405.6,409.3c7.4,0,11.7,4.2,11.7,10.7-.1,6.3-4.7,10.5-12,10.5-9.9.1-19.9,0-30.4,0,0,3.9.1,7.1,0,10.2-.4,6.7-4.5,10.9-10.5,11-6.2.1-10.6-4.3-10.8-11.2-.2-6.6-.2-13.3,0-20,.2-7.3,4.4-11.2,11.8-11.3C378.7,409.2,392.1,409.2,405.6,409.3Z" transform="translate(-183.25 -89.05)"/><path class="cls-1" d="M396.1,206.2c.1,5.7-4,10.3-10.1,10.9-3.6.3-7.3.1-11,.1h0c-3.6,0-7.3.2-11-.1-6.2-.5-10.5-5-10.5-10.6a10.49,10.49,0,0,1,10.4-10.6q11-.45,21.9,0A10.48,10.48,0,0,1,396.1,206.2Z" transform="translate(-183.25 -89.05)"/><path class="cls-1" d="M374.8,334.4c0,5.6-4.2,10.2-10.4,10.7-3.6.3-7.3.1-11,.1h0c-3.5,0-7,.2-10.5,0-6.5-.4-10.8-4.9-10.7-10.8.1-5.7,4.3-10.2,10.6-10.4,7.1-.3,14.3-.3,21.4,0C370.5,324.2,374.8,328.8,374.8,334.4Z" transform="translate(-183.25 -89.05)"/><path class="cls-1" d="M353.4,291.6c.1,6.1-4.2,10.6-10.6,10.8-6.8.2-13.6.1-20.4,0-7-.1-11-4.1-11.3-11.2-.1-3.1,0-6.3,0-10-3.5,0-6.4.1-9.3,0-7.2-.2-12-4.4-12.1-10.6s4.7-10.7,11.8-10.8q9.45-.15,18.9,0c7.8.2,11.7,4.4,11.8,12.3v9.2c3.7,0,7.2-.1,10.6,0C349.2,281.6,353.3,285.7,353.4,291.6Z" transform="translate(-183.25 -89.05)"/><path class="cls-1" d="M332.2,390.7q.3,18.45,0,36.9a24.29,24.29,0,0,1-23.8,24c-12.5.3-24.9.3-37.4,0-13.4-.3-23.3-10.6-23.7-24-.2-6.1,0-12.3,0-18.5h0c0-6.3-.2-12.6,0-19A24.34,24.34,0,0,1,271,366.5c12.5-.3,24.9-.3,37.4,0A24.61,24.61,0,0,1,332.2,390.7Zm-21.2,35v-33c0-3.3-1.7-4.9-4.9-4.9H273.2c-3.2,0-4.9,1.5-4.9,4.9.1,11,0,22,0,33,0,3.3,1.5,4.9,4.9,4.9h16.4c5.3,0,10.6-.1,16,0C309.1,430.6,311,429.2,311,425.7Z" transform="translate(-183.25 -89.05)"/><path class="cls-1" d="M332.1,177.1c.3,12.5.3,25,0,37.4a24.52,24.52,0,0,1-24,23.9c-12.3.3-24.6.2-36.9,0a24.31,24.31,0,0,1-24-23.9c-.3-12.5-.3-25,0-37.4.3-13.4,10.5-23.4,23.9-23.8,6.1-.2,12.3,0,18.4,0h0c6.3,0,12.6-.2,18.9.1A24.29,24.29,0,0,1,332.1,177.1ZM311,212V179.5c0-3.5-1.7-5.1-5.3-5-5.1.1-10.3,0-15.5,0-5.5,0-11,.1-16.4,0-3.7-.1-5.6,1.3-5.5,5.2.1,10.8.1,21.6,0,32.5,0,3.7,1.8,5.1,5.2,5.1h32.4C309.5,217.3,311,215.5,311,212Z" transform="translate(-183.25 -89.05)"/><path class="cls-1" d="M298.6,323.8c7.5.1,12.4,4.5,12.3,10.9-.1,6.2-4.9,10.5-12.1,10.5-13.1.1-26.3.1-39.4,0-7.6-.1-12.2-4.3-12.1-10.9.1-6.3,4.6-10.3,12-10.6h20C285.7,323.8,292.2,323.7,298.6,323.8Z" transform="translate(-183.25 -89.05)"/><path class="cls-1" d="M289.3,502.5c1.1,4.8-.9,9.8-5.2,11.9a14,14,0,0,1-5.7,1.3c-14.8.1-29.6.3-44.4-.1-27.5-.9-49.5-23.2-50.5-50.8-.3-7,0-14,0-21h-.1c0-7.7-.1-15.3,0-23,.1-7.1,4.1-11.4,10.4-11.5s10.7,4.5,10.8,11.7c.1,13.3,0,26.7,0,40,.1,19.9,13.6,33.4,33.6,33.5,13.5,0,26.9-.1,40.4,0C284,494.6,288.2,497.8,289.3,502.5Z" transform="translate(-183.25 -89.05)"/><path class="cls-1" d="M268.3,280.9c0,3.5.1,7,0,10.5-.2,6.4-4.6,11-10.5,11.1s-10.5-4.4-10.6-10.8q-.3-10.5,0-21c.2-6.4,4.8-10.9,10.6-10.9s10.3,4.7,10.5,11.1C268.4,274.2,268.3,277.6,268.3,280.9Z" transform="translate(-183.25 -89.05)"/></g></svg>