<svg id="Layer_9" data-name="Layer 9" xmlns="http://www.w3.org/2000/svg" viewBox="0 0 497.09 558.69"><defs><style>.cls-1,.cls-2{fill:#fff;}.cls-1{stroke:#fff;stroke-miterlimit:10;stroke-width:20px;}</style></defs><g id="user_search" data-name="user search"><g id="users_scanned_icon" data-name="users scanned icon"><circle class="cls-1" cx="231.8" cy="137.2" r="57.1"/><path class="cls-1" d="M492.3,367a6.7,6.7,0,0,0,6.7-7.4,119.29,119.29,0,0,0-237.4,0,6.75,6.75,0,0,0,6.7,7.4Z" transform="translate(-148.5 -32.3)"/></g><path class="cls-2" d="M380.5,32.3c-128.1,0-232,103.9-232,232s103.9,232,232,232,232-103.9,232-232S508.6,32.3,380.5,32.3Zm0,430.8c-109.8,0-198.8-89-198.8-198.8s89-198.8,198.8-198.8,198.8,89,198.8,198.8S490.3,463.1,380.5,463.1Z" transform="translate(-148.5 -32.3)"/><path class="cls-2" d="M591.6,580.7,498.8,477.2a31,31,0,0,1,2.4-43.7h0a31,31,0,0,1,43.7,2.4l92.8,103.5a31,31,0,0,1-2.4,43.7h0A31,31,0,0,1,591.6,580.7Z" transform="translate(-148.5 -32.3)"/></g></svg>