<svg id="Layer_6" data-name="Layer 6" xmlns="http://www.w3.org/2000/svg" viewBox="0 0 506.47 506.21"><defs><style>.cls-1,.cls-2{fill:none;stroke:#fff;stroke-miterlimit:10;stroke-width:30px;}.cls-2{stroke-linecap:round;}.cls-3{fill:#fff;}</style></defs><g id="select_all" data-name="select all"><rect class="cls-1" x="104.97" y="104.71" width="386.5" height="386.5" rx="50.75"/><path class="cls-2" d="M213.91,469.81c-28.37,0-51.57-23.32-51.57-51.83V127a51.84,51.84,0,0,1,51.57-51.82H503.5c28.36,0,51.56,23.32,51.56,51.82" transform="translate(-147.34 -60.14)"/><path class="cls-3" d="M417.16,409.35a3.73,3.73,0,0,0,1.2-1.35l17.42-24.37q47.39-66.27,94.75-132.53a32.15,32.15,0,0,1,56.37,6.43,33.51,33.51,0,0,1-3.77,31.86q-15.82,22.07-31.59,44.17-50.2,70.24-100.42,140.49a32,32,0,0,1-14,11.54c-11.15,4.51-21.77,3.38-31.6-3.62-7-5-13.85-10.19-20.76-15.29q-35-25.83-70-51.65a33.24,33.24,0,0,1-2.27-52.15,32.14,32.14,0,0,1,40-1.26q10.51,7.72,21,15.51l41.89,30.92C416,408.49,416.57,408.92,417.16,409.35Z" transform="translate(-147.34 -60.14)"/></g></svg>